# xmcd
#
# Track frame offsets: 
#        150
#        18775
#        36030
#        54170
#        70560
#        88450
#        106762
#        123015
#        139595
#        154684
#        172325
#        189957
#
# Disc length: 2741 seconds
#
# Revision: 1
# Processed by: cddbd v1.5PL3 Copyright (c) Steve Scherf et al.
# Submitted via: ExactAudioCopy v0.95a3
#
DISCID=8e0ab30c
DTITLE=Lee Greenwood - Stronger Than Time
DYEAR=2003
DGENRE=Country
TTITLE0=Love Is Stronger Than Time
TTITLE1=It Almost Makes Me Glad
TTITLE2=Rocks That You Can't Move
TTITLE3=Invisibly Shaken
TTITLE4=One Life To Love
TTITLE5=I Will Not Go Quietly
TTITLE6=Cornfield Cadillac
TTITLE7=Beautiful Lies
TTITLE8='Round Here
TTITLE9=When A Woman's In Love
TTITLE10=Love Me Like You've Never Been Hurt
TTITLE11=God Bless The USA (2003 Version)
EXTD=
EXTT0=
EXTT1=
EXTT2=
EXTT3=
EXTT4=
EXTT5=
EXTT6=
EXTT7=
EXTT8=
EXTT9=
EXTT10=
EXTT11=
PLAYORDER=
